<?xml version="1.0" encoding="utf-8"?>
<!-- Generator: Adobe Illustrator 23.0.3, SVG Export Plug-In . SVG Version: 6.00 Build 0)  -->
<svg version="1.1" id="Layer_1" xmlns="http://www.w3.org/2000/svg" xmlns:xlink="http://www.w3.org/1999/xlink" x="0px" y="0px"
	 viewBox="0 0 50 50" style="enable-background:new 0 0 50 50;" xml:space="preserve">
<style type="text/css">
	.st0{fill:#038299;}
</style>
<path class="st0" d="M-45,0c-13.8,0-25,11.2-25,25c0,13.8,11.2,25,25,25c13.8,0,25-11.2,25-25C-20,11.2-31.2,0-45,0z M-56,14.4H-34
	c0.6,0,1.2,0.2,1.8,0.4L-45,25.1l-12.8-10.2C-57.3,14.6-56.7,14.4-56,14.4z M-59.7,31.2V17.8c0-0.7,0.2-1.3,0.6-1.8l9.2,7.3
	l-9.3,9.5C-59.5,32.4-59.7,31.8-59.7,31.2z M-34,34.6H-56c-0.7,0-1.4-0.2-1.9-0.5l9.4-9.6l3,2.4c0.2,0.1,0.4,0.2,0.6,0.2
	c0.2,0,0.4-0.1,0.6-0.2l3-2.4l9.4,9.6C-32.6,34.4-33.3,34.6-34,34.6z M-30.3,31.2c0,0.6-0.2,1.1-0.5,1.6l-9.3-9.5l9.2-7.3
	c0.4,0.5,0.6,1.1,0.6,1.8V31.2z"/>
<path class="st0" d="M25,0.1c-13.8,0-25,11.2-25,25c0,13.8,11.2,25,25,25c13.8,0,25-11.2,25-25C50,11.2,38.8,0.1,25,0.1z M19.2,35.1
	h-4.5V21.5h4.5V35.1z M17,19.7L17,19.7c-1.5,0-2.5-1-2.5-2.3c0-1.3,1-2.4,2.6-2.4c1.5,0,2.5,1,2.5,2.4C19.5,18.6,18.6,19.7,17,19.7z
	 M35.6,35.1H31v-7.3c0-1.8-0.7-3.1-2.3-3.1c-1.2,0-2,0.8-2.3,1.7c-0.1,0.3-0.2,0.7-0.2,1.1v7.6h-4.5c0,0,0.1-12.3,0-13.6h4.5v1.9
	c0.6-0.9,1.7-2.2,4.1-2.2c3,0,5.2,1.9,5.2,6.1V35.1z"/>
<g>
	<path class="st0" d="M-35.2,92.5c-3.2,0-3.7,3.2-3.7,3.2h6.9C-32,95.7-31.9,92.5-35.2,92.5z"/>
	<path class="st0" d="M-50.7,95.7h-6.1v5.6h5.4c0.1,0,0.2,0,0.4,0c0.9,0,2.5-0.3,2.5-2.7C-48.5,95.7-50.7,95.7-50.7,95.7z"/>
	<path class="st0" d="M-45,70c-13.8,0-25,11.2-25,25s11.2,25,25,25c13.8,0,25-11.2,25-25C-20,81.2-31.2,70-45,70z M-39.7,85.4h8.6
		v2.6h-8.6V85.4z M-44.1,98.8c0,6.4-6.6,6.2-6.6,6.2h-6.1H-57h-4.6V84.1h4.6h0.2h6.1c3.3,0,5.9,1.8,5.9,5.6s-3.2,4-3.2,4
		C-43.8,93.7-44.1,98.8-44.1,98.8z M-28,98.5h-10.8c0,3.9,3.7,3.6,3.7,3.6c3.5,0,3.3-2.2,3.3-2.2h3.7c0,6-7.1,5.5-7.1,5.5
		c-8.6,0-8-8-8-8s0-8,8-8C-26.8,89.4-28,98.5-28,98.5z"/>
	<path class="st0" d="M-49.2,90c0-2.2-1.5-2.2-1.5-2.2h-0.8h-5.3v4.7h5.7C-50.1,92.5-49.2,92.2-49.2,90z"/>
</g>
</svg>
