<?xml version="1.0" encoding="utf-8"?>
<!-- Generator: Adobe Illustrator 23.0.3, SVG Export Plug-In . SVG Version: 6.00 Build 0)  -->
<svg version="1.1" id="Layer_1" xmlns="http://www.w3.org/2000/svg" xmlns:xlink="http://www.w3.org/1999/xlink" x="0px" y="0px"
	 viewBox="0 0 50 50" style="enable-background:new 0 0 50 50;" xml:space="preserve">
<style type="text/css">
	.st0{fill:#038299;}
</style>
<path class="st0" d="M25-70C11.2-70,0-58.8,0-45c0,13.8,11.2,25,25,25c13.8,0,25-11.2,25-25C50-58.8,38.8-70,25-70z M14-55.6H36
	c0.6,0,1.2,0.2,1.8,0.4L25-44.9L12.2-55.2C12.7-55.4,13.3-55.6,14-55.6z M10.3-38.8v-13.4c0-0.7,0.2-1.3,0.6-1.8l9.2,7.3l-9.3,9.5
	C10.5-37.6,10.3-38.2,10.3-38.8z M36-35.4H14c-0.7,0-1.4-0.2-1.9-0.5l9.4-9.6l3,2.4c0.2,0.1,0.4,0.2,0.6,0.2c0.2,0,0.4-0.1,0.6-0.2
	l3-2.4l9.4,9.6C37.4-35.6,36.7-35.4,36-35.4z M39.7-38.8c0,0.6-0.2,1.1-0.5,1.6l-9.3-9.5l9.2-7.3c0.4,0.5,0.6,1.1,0.6,1.8V-38.8z"/>
<path class="st0" d="M95-69.9c-13.8,0-25,11.2-25,25c0,13.8,11.2,25,25,25c13.8,0,25-11.2,25-25C120-58.8,108.8-69.9,95-69.9z
	 M89.2-34.9h-4.5v-13.6h4.5V-34.9z M87-50.3L87-50.3c-1.5,0-2.5-1-2.5-2.3c0-1.3,1-2.4,2.6-2.4c1.5,0,2.5,1,2.5,2.4
	C89.5-51.4,88.6-50.3,87-50.3z M105.6-34.9H101v-7.3c0-1.8-0.7-3.1-2.3-3.1c-1.2,0-2,0.8-2.3,1.7c-0.1,0.3-0.2,0.7-0.2,1.1v7.6h-4.5
	c0,0,0.1-12.3,0-13.6h4.5v1.9c0.6-0.9,1.7-2.2,4.1-2.2c3,0,5.2,1.9,5.2,6.1V-34.9z"/>
<g>
	<path class="st0" d="M34.8,22.5c-3.2,0-3.7,3.2-3.7,3.2H38C38,25.7,38.1,22.5,34.8,22.5z"/>
	<path class="st0" d="M19.3,25.7h-6.1v5.6h5.4c0.1,0,0.2,0,0.4,0c0.9,0,2.5-0.3,2.5-2.7C21.5,25.7,19.3,25.7,19.3,25.7z"/>
	<path class="st0" d="M25,0C11.2,0,0,11.2,0,25s11.2,25,25,25c13.8,0,25-11.2,25-25C50,11.2,38.8,0,25,0z M30.3,15.4h8.6v2.6h-8.6
		V15.4z M25.9,28.8c0,6.4-6.6,6.2-6.6,6.2h-6.1H13H8.4V14.1H13h0.2h6.1c3.3,0,5.9,1.8,5.9,5.6s-3.2,4-3.2,4
		C26.2,23.7,25.9,28.8,25.9,28.8z M42,28.5H31.2c0,3.9,3.7,3.6,3.7,3.6c3.5,0,3.3-2.2,3.3-2.2h3.7c0,6-7.1,5.5-7.1,5.5
		c-8.6,0-8-8-8-8s0-8,8-8C43.2,19.4,42,28.5,42,28.5z"/>
	<path class="st0" d="M20.8,20c0-2.2-1.5-2.2-1.5-2.2h-0.8h-5.3v4.7h5.7C19.9,22.5,20.8,22.2,20.8,20z"/>
</g>
</svg>
