<?xml version="1.0" encoding="utf-8"?>
<!-- Generator: Adobe Illustrator 23.0.3, SVG Export Plug-In . SVG Version: 6.00 Build 0)  -->
<svg version="1.1" id="Layer_1" xmlns="http://www.w3.org/2000/svg" xmlns:xlink="http://www.w3.org/1999/xlink" x="0px" y="0px"
	 viewBox="0 0 800 100.3" style="enable-background:new 0 0 800 100.3;" xml:space="preserve">
<style type="text/css">
	.st0{fill:#038299;}
</style>
<path class="st0" d="M38.6,61.1c0-2.1-0.8-3.6-2.3-4.8c-1.5-1.1-4.2-2.1-8.1-2.9s-6.9-1.8-9.1-3s-3.9-2.5-5-4.1
	c-1.1-1.6-1.6-3.5-1.6-5.7c0-3.6,1.5-6.7,4.6-9.2c3.1-2.5,7-3.8,11.8-3.8c5,0,9.1,1.3,12.2,3.9c3.1,2.6,4.7,5.9,4.7,10h-7.6
	c0-2.1-0.9-3.9-2.6-5.4c-1.8-1.5-4-2.3-6.7-2.3c-2.8,0-4.9,0.6-6.5,1.8c-1.6,1.2-2.3,2.8-2.3,4.7c0,1.8,0.7,3.2,2.2,4.1
	c1.4,0.9,4.1,1.8,7.9,2.7c3.8,0.8,6.9,1.9,9.2,3c2.4,1.2,4.1,2.6,5.2,4.2c1.1,1.7,1.7,3.7,1.7,6c0,4-1.6,7.1-4.8,9.5
	s-7.3,3.6-12.3,3.6c-3.6,0-6.7-0.6-9.4-1.9c-2.7-1.3-4.9-3-6.4-5.3S11,61.8,11,59.2h7.6c0.1,2.5,1.2,4.6,3.1,6
	c1.9,1.5,4.4,2.2,7.5,2.2c2.9,0,5.2-0.6,6.9-1.7S38.6,63,38.6,61.1z"/>
<path class="st0" d="M66.4,17.7v10.7h8.3v5.9h-8.3v27.6c0,1.8,0.4,3.1,1.1,4s2,1.3,3.8,1.3c0.9,0,2.1-0.2,3.6-0.5v6.1
	c-2,0.5-3.9,0.8-5.8,0.8c-3.4,0-5.9-1-7.7-3.1s-2.6-5-2.6-8.7V34.3h-8.1v-5.9h8.1V17.7H66.4z"/>
<path class="st0" d="M102,73.7c-6,0-10.9-2-14.7-5.9s-5.7-9.2-5.7-15.9v-1.4c0-4.4,0.8-8.3,2.5-11.8c1.7-3.5,4-6.2,7.1-8.1
	c3-2,6.3-2.9,9.8-2.9c5.8,0,10.3,1.9,13.5,5.7c3.2,3.8,4.8,9.2,4.8,16.3v3.2H89.2c0.1,4.4,1.4,7.9,3.8,10.6c2.4,2.7,5.6,4,9.3,4
	c2.7,0,4.9-0.5,6.8-1.6s3.5-2.5,4.9-4.3l4.6,3.6C115,70.8,109.4,73.7,102,73.7z M101,33.9c-3.1,0-5.6,1.1-7.7,3.3
	c-2.1,2.2-3.4,5.4-3.9,9.4h22.2V46c-0.2-3.9-1.3-6.8-3.1-9C106.7,34.9,104.2,33.9,101,33.9z"/>
<path class="st0" d="M165.6,51.2c0,6.8-1.5,12.2-4.6,16.3s-7.3,6.2-12.6,6.2c-5.4,0-9.6-1.7-12.7-5.1v21.4h-7.6V28.5h6.9l0.4,4.9
	c3.1-3.8,7.4-5.7,12.9-5.7c5.3,0,9.5,2,12.7,6s4.7,9.6,4.7,16.8V51.2z M158,50.3c0-5-1.1-9-3.2-11.9c-2.1-2.9-5.1-4.3-8.8-4.3
	c-4.6,0-8,2-10.3,6.1v21.2c2.3,4,5.7,6.1,10.4,6.1c3.6,0,6.5-1.4,8.7-4.3C156.9,60.3,158,56,158,50.3z"/>
<path class="st0" d="M182.8,33.8c3.4-4.1,7.7-6.2,13.1-6.2c9.4,0,14.1,5.3,14.2,15.9v29.3h-7.6V43.5c0-3.2-0.8-5.6-2.2-7.1
	c-1.4-1.5-3.7-2.3-6.7-2.3c-2.5,0-4.6,0.7-6.5,2s-3.3,3-4.3,5.2v31.6h-7.6v-63h7.6V33.8z"/>
<path class="st0" d="M248.9,72.9c-0.4-0.9-0.8-2.4-1.1-4.7c-3.5,3.7-7.7,5.5-12.6,5.5c-4.4,0-8-1.2-10.8-3.7s-4.2-5.6-4.2-9.4
	c0-4.6,1.8-8.2,5.3-10.8c3.5-2.6,8.5-3.8,14.8-3.8h7.4v-3.5c0-2.7-0.8-4.8-2.4-6.3c-1.6-1.6-3.9-2.4-7-2.4c-2.7,0-5,0.7-6.8,2.1
	c-1.8,1.4-2.7,3-2.7,5h-7.6c0-2.2,0.8-4.4,2.4-6.4c1.6-2.1,3.7-3.7,6.4-4.9c2.7-1.2,5.7-1.8,8.9-1.8c5.1,0,9.1,1.3,12,3.8
	c2.9,2.6,4.4,6.1,4.5,10.6v20.4c0,4.1,0.5,7.3,1.6,9.7v0.7H248.9z M236.3,67.1c2.4,0,4.6-0.6,6.8-1.8c2.1-1.2,3.7-2.8,4.6-4.8v-9.1
	h-5.9c-9.3,0-13.9,2.7-13.9,8.2c0,2.4,0.8,4.2,2.4,5.6C231.7,66.4,233.8,67.1,236.3,67.1z"/>
<path class="st0" d="M274.3,28.5l0.2,5.6c3.4-4.3,7.8-6.4,13.3-6.4c9.4,0,14.1,5.3,14.2,15.9v29.3h-7.6V43.5c0-3.2-0.8-5.6-2.2-7.1
	c-1.4-1.5-3.7-2.3-6.7-2.3c-2.5,0-4.6,0.7-6.5,2s-3.3,3-4.3,5.2v31.6h-7.6V28.5H274.3z"/>
<path class="st0" d="M313.5,16.7c0-1.2,0.4-2.3,1.1-3.1c0.8-0.8,1.9-1.3,3.3-1.3s2.6,0.4,3.4,1.3c0.8,0.8,1.1,1.9,1.1,3.1
	s-0.4,2.3-1.1,3.1S319.5,21,318,21s-2.6-0.4-3.3-1.2S313.5,17.9,313.5,16.7z M321.7,72.9h-7.6V28.5h7.6V72.9z"/>
<path class="st0" d="M352.3,73.7c-6,0-10.9-2-14.7-5.9s-5.7-9.2-5.7-15.9v-1.4c0-4.4,0.8-8.3,2.5-11.8c1.7-3.5,4-6.2,7.1-8.1
	c3-2,6.3-2.9,9.8-2.9c5.8,0,10.3,1.9,13.5,5.7c3.2,3.8,4.8,9.2,4.8,16.3v3.2h-30.1c0.1,4.4,1.4,7.9,3.8,10.6c2.4,2.7,5.6,4,9.3,4
	c2.7,0,4.9-0.5,6.8-1.6s3.5-2.5,4.9-4.3l4.6,3.6C365.3,70.8,359.7,73.7,352.3,73.7z M351.4,33.9c-3.1,0-5.6,1.1-7.7,3.3
	c-2.1,2.2-3.4,5.4-3.9,9.4H362V46c-0.2-3.9-1.3-6.8-3.1-9C357,34.9,354.5,33.9,351.4,33.9z"/>
<path class="st0" d="M426.6,72.9c-0.4-0.9-0.8-2.4-1.1-4.7c-3.5,3.7-7.7,5.5-12.6,5.5c-4.4,0-8-1.2-10.8-3.7s-4.2-5.6-4.2-9.4
	c0-4.6,1.8-8.2,5.3-10.8c3.5-2.6,8.5-3.8,14.8-3.8h7.4v-3.5c0-2.7-0.8-4.8-2.4-6.3c-1.6-1.6-3.9-2.4-7-2.4c-2.7,0-5,0.7-6.8,2.1
	c-1.8,1.4-2.7,3-2.7,5h-7.6c0-2.2,0.8-4.4,2.4-6.4c1.6-2.1,3.7-3.7,6.4-4.9c2.7-1.2,5.7-1.8,8.9-1.8c5.1,0,9.1,1.3,12,3.8
	c2.9,2.6,4.4,6.1,4.5,10.6v20.4c0,4.1,0.5,7.3,1.6,9.7v0.7H426.6z M414,67.1c2.4,0,4.6-0.6,6.8-1.8c2.1-1.2,3.7-2.8,4.6-4.8v-9.1
	h-5.9c-9.3,0-13.9,2.7-13.9,8.2c0,2.4,0.8,4.2,2.4,5.6C409.5,66.4,411.5,67.1,414,67.1z"/>
<path class="st0" d="M472.3,68.5c-3,3.5-7.3,5.2-13,5.2c-4.7,0-8.3-1.4-10.8-4.1s-3.7-6.8-3.8-12.2V28.5h7.6v28.7
	c0,6.7,2.7,10.1,8.2,10.1c5.8,0,9.7-2.2,11.6-6.5V28.5h7.6v44.4h-7.2L472.3,68.5z"/>
<path class="st0" d="M517,61.1c0-2.1-0.8-3.6-2.3-4.8c-1.5-1.1-4.2-2.1-8.1-2.9s-6.9-1.8-9.1-3s-3.9-2.5-5-4.1
	c-1.1-1.6-1.6-3.5-1.6-5.7c0-3.6,1.5-6.7,4.6-9.2c3.1-2.5,7-3.8,11.8-3.8c5,0,9.1,1.3,12.2,3.9c3.1,2.6,4.7,5.9,4.7,10h-7.6
	c0-2.1-0.9-3.9-2.6-5.4c-1.8-1.5-4-2.3-6.7-2.3c-2.8,0-4.9,0.6-6.5,1.8c-1.6,1.2-2.3,2.8-2.3,4.7c0,1.8,0.7,3.2,2.2,4.1
	c1.4,0.9,4.1,1.8,7.9,2.7c3.8,0.8,6.9,1.9,9.2,3c2.4,1.2,4.1,2.6,5.2,4.2c1.1,1.7,1.7,3.7,1.7,6c0,4-1.6,7.1-4.8,9.5
	s-7.3,3.6-12.3,3.6c-3.6,0-6.7-0.6-9.4-1.9s-4.9-3-6.4-5.3s-2.3-4.7-2.3-7.3h7.6c0.1,2.5,1.2,4.6,3.1,6c1.9,1.5,4.4,2.2,7.5,2.2
	c2.9,0,5.2-0.6,6.9-1.7S517,63,517,61.1z"/>
<path class="st0" d="M538.2,72.9V34.3h-7v-5.9h7v-4.6c0-4.8,1.3-8.4,3.8-11c2.5-2.6,6.1-3.9,10.8-3.9c1.8,0,3.5,0.2,5.2,0.7
	l-0.4,6.1c-1.3-0.2-2.7-0.4-4.1-0.4c-2.5,0-4.4,0.7-5.7,2.2c-1.3,1.4-2,3.5-2,6.2v4.7h9.5v5.9h-9.5v38.5H538.2z"/>
<path class="st0" d="M585.1,35.3c-1.1-0.2-2.4-0.3-3.7-0.3c-5,0-8.4,2.1-10.1,6.4v31.5h-7.6V28.5h7.4l0.1,5.1c2.5-4,6-5.9,10.6-5.9
	c1.5,0,2.6,0.2,3.4,0.6V35.3z"/>
<path class="st0" d="M610.5,73.7c-6,0-10.9-2-14.7-5.9s-5.7-9.2-5.7-15.9v-1.4c0-4.4,0.8-8.3,2.5-11.8c1.7-3.5,4-6.2,7.1-8.1
	c3-2,6.3-2.9,9.8-2.9c5.8,0,10.3,1.9,13.5,5.7c3.2,3.8,4.8,9.2,4.8,16.3v3.2h-30.1c0.1,4.4,1.4,7.9,3.8,10.6c2.4,2.7,5.6,4,9.3,4
	c2.7,0,4.9-0.5,6.8-1.6s3.5-2.5,4.9-4.3l4.6,3.6C623.5,70.8,617.9,73.7,610.5,73.7z M609.5,33.9c-3.1,0-5.6,1.1-7.7,3.3
	c-2.1,2.2-3.4,5.4-3.9,9.4h22.2V46c-0.2-3.9-1.3-6.8-3.1-9C615.2,34.9,612.7,33.9,609.5,33.9z"/>
<path class="st0" d="M662.4,61.1c0-2.1-0.8-3.6-2.3-4.8c-1.5-1.1-4.2-2.1-8.1-2.9s-6.9-1.8-9.1-3s-3.9-2.5-5-4.1
	c-1.1-1.6-1.6-3.5-1.6-5.7c0-3.6,1.5-6.7,4.6-9.2c3.1-2.5,7-3.8,11.8-3.8c5,0,9.1,1.3,12.2,3.9c3.1,2.6,4.7,5.9,4.7,10H662
	c0-2.1-0.9-3.9-2.6-5.4c-1.8-1.5-4-2.3-6.7-2.3c-2.8,0-4.9,0.6-6.5,1.8c-1.6,1.2-2.3,2.8-2.3,4.7c0,1.8,0.7,3.2,2.2,4.1
	c1.4,0.9,4.1,1.8,7.9,2.7c3.8,0.8,6.9,1.9,9.2,3c2.4,1.2,4.1,2.6,5.2,4.2c1.1,1.7,1.7,3.7,1.7,6c0,4-1.6,7.1-4.8,9.5
	s-7.3,3.6-12.3,3.6c-3.6,0-6.7-0.6-9.4-1.9s-4.9-3-6.4-5.3s-2.3-4.7-2.3-7.3h7.6c0.1,2.5,1.2,4.6,3.1,6c1.9,1.5,4.4,2.2,7.5,2.2
	c2.9,0,5.2-0.6,6.9-1.7S662.4,63,662.4,61.1z"/>
<path class="st0" d="M705.7,61.1c0-2.1-0.8-3.6-2.3-4.8c-1.5-1.1-4.2-2.1-8.1-2.9s-6.9-1.8-9.1-3s-3.9-2.5-5-4.1
	c-1.1-1.6-1.6-3.5-1.6-5.7c0-3.6,1.5-6.7,4.6-9.2c3.1-2.5,7-3.8,11.8-3.8c5,0,9.1,1.3,12.2,3.9c3.1,2.6,4.7,5.9,4.7,10h-7.6
	c0-2.1-0.9-3.9-2.6-5.4c-1.8-1.5-4-2.3-6.7-2.3c-2.8,0-4.9,0.6-6.5,1.8c-1.6,1.2-2.3,2.8-2.3,4.7c0,1.8,0.7,3.2,2.2,4.1
	c1.4,0.9,4.1,1.8,7.9,2.7c3.8,0.8,6.9,1.9,9.2,3c2.4,1.2,4.1,2.6,5.2,4.2c1.1,1.7,1.7,3.7,1.7,6c0,4-1.6,7.1-4.8,9.5
	s-7.3,3.6-12.3,3.6c-3.6,0-6.7-0.6-9.4-1.9s-4.9-3-6.4-5.3s-2.3-4.7-2.3-7.3h7.6c0.1,2.5,1.2,4.6,3.1,6c1.9,1.5,4.4,2.2,7.5,2.2
	c2.9,0,5.2-0.6,6.9-1.7S705.7,63,705.7,61.1z"/>
<path class="st0" d="M741.6,73.7c-6,0-10.9-2-14.7-5.9s-5.7-9.2-5.7-15.9v-1.4c0-4.4,0.8-8.3,2.5-11.8c1.7-3.5,4-6.2,7.1-8.1
	c3-2,6.3-2.9,9.8-2.9c5.8,0,10.3,1.9,13.5,5.7c3.2,3.8,4.8,9.2,4.8,16.3v3.2h-30.1c0.1,4.4,1.4,7.9,3.8,10.6c2.4,2.7,5.6,4,9.3,4
	c2.7,0,4.9-0.5,6.8-1.6s3.5-2.5,4.9-4.3l4.6,3.6C754.6,70.8,749.1,73.7,741.6,73.7z M740.7,33.9c-3.1,0-5.6,1.1-7.7,3.3
	c-2.1,2.2-3.4,5.4-3.9,9.4h22.2V46c-0.2-3.9-1.3-6.8-3.1-9C746.4,34.9,743.8,33.9,740.7,33.9z"/>
<path class="st0" d="M789.2,35.3c-1.1-0.2-2.4-0.3-3.7-0.3c-5,0-8.4,2.1-10.1,6.4v31.5h-7.6V28.5h7.4l0.1,5.1c2.5-4,6-5.9,10.6-5.9
	c1.5,0,2.6,0.2,3.4,0.6V35.3z"/>
</svg>
